<?xml version="1.0" encoding="UTF-8"?>
<!--
  diaspora — dandelion mark

  32 rays at 11.25° increments, perfectly radially symmetric.
  All seeds on a circle of radius 104 from center (120, 120).
  Monochrome: uses currentColor so it inherits from parent CSS.

  Scales cleanly from 16×16 favicon to billboard.
-->
<svg xmlns="http://www.w3.org/2000/svg" viewBox="0 0 240 240" width="240" height="240" fill="currentColor" stroke="currentColor" role="img" aria-label="diaspora">
  <title>diaspora</title>

  <g stroke-width="2.4" stroke-linecap="round" fill="none">
    <line x1="120.000" y1="104.000" x2="120.000" y2="16.000"/>
    <line x1="123.121" y1="104.307" x2="140.289" y2="17.998"/>
    <line x1="126.123" y1="105.218" x2="159.799" y2="23.917"/>
    <line x1="128.889" y1="106.696" x2="177.779" y2="33.527"/>
    <line x1="131.314" y1="108.686" x2="193.539" y2="46.461"/>
    <line x1="133.304" y1="111.111" x2="206.473" y2="62.221"/>
    <line x1="134.782" y1="113.877" x2="216.083" y2="80.201"/>
    <line x1="135.693" y1="116.879" x2="222.002" y2="99.711"/>
    <line x1="136.000" y1="120.000" x2="224.000" y2="120.000"/>
    <line x1="135.693" y1="123.121" x2="222.002" y2="140.289"/>
    <line x1="134.782" y1="126.123" x2="216.083" y2="159.799"/>
    <line x1="133.304" y1="128.889" x2="206.473" y2="177.779"/>
    <line x1="131.314" y1="131.314" x2="193.539" y2="193.539"/>
    <line x1="128.889" y1="133.304" x2="177.779" y2="206.473"/>
    <line x1="126.123" y1="134.782" x2="159.799" y2="216.083"/>
    <line x1="123.121" y1="135.693" x2="140.289" y2="222.002"/>
    <line x1="120.000" y1="136.000" x2="120.000" y2="224.000"/>
    <line x1="116.879" y1="135.693" x2="99.711" y2="222.002"/>
    <line x1="113.877" y1="134.782" x2="80.201" y2="216.083"/>
    <line x1="111.111" y1="133.304" x2="62.221" y2="206.473"/>
    <line x1="108.686" y1="131.314" x2="46.461" y2="193.539"/>
    <line x1="106.696" y1="128.889" x2="33.527" y2="177.779"/>
    <line x1="105.218" y1="126.123" x2="23.917" y2="159.799"/>
    <line x1="104.307" y1="123.121" x2="17.998" y2="140.289"/>
    <line x1="104.000" y1="120.000" x2="16.000" y2="120.000"/>
    <line x1="104.307" y1="116.879" x2="17.998" y2="99.711"/>
    <line x1="105.218" y1="113.877" x2="23.917" y2="80.201"/>
    <line x1="106.696" y1="111.111" x2="33.527" y2="62.221"/>
    <line x1="108.686" y1="108.686" x2="46.461" y2="46.461"/>
    <line x1="111.111" y1="106.696" x2="62.221" y2="33.527"/>
    <line x1="113.877" y1="105.218" x2="80.201" y2="23.917"/>
    <line x1="116.879" y1="104.307" x2="99.711" y2="17.998"/>
  </g>

  <g stroke="none">
    <circle cx="120.000" cy="16.000"  r="3.2"/>
    <circle cx="140.289" cy="17.998"  r="3.2"/>
    <circle cx="159.799" cy="23.917"  r="3.2"/>
    <circle cx="177.779" cy="33.527"  r="3.2"/>
    <circle cx="193.539" cy="46.461"  r="3.2"/>
    <circle cx="206.473" cy="62.221"  r="3.2"/>
    <circle cx="216.083" cy="80.201"  r="3.2"/>
    <circle cx="222.002" cy="99.711"  r="3.2"/>
    <circle cx="224.000" cy="120.000" r="3.2"/>
    <circle cx="222.002" cy="140.289" r="3.2"/>
    <circle cx="216.083" cy="159.799" r="3.2"/>
    <circle cx="206.473" cy="177.779" r="3.2"/>
    <circle cx="193.539" cy="193.539" r="3.2"/>
    <circle cx="177.779" cy="206.473" r="3.2"/>
    <circle cx="159.799" cy="216.083" r="3.2"/>
    <circle cx="140.289" cy="222.002" r="3.2"/>
    <circle cx="120.000" cy="224.000" r="3.2"/>
    <circle cx="99.711"  cy="222.002" r="3.2"/>
    <circle cx="80.201"  cy="216.083" r="3.2"/>
    <circle cx="62.221"  cy="206.473" r="3.2"/>
    <circle cx="46.461"  cy="193.539" r="3.2"/>
    <circle cx="33.527"  cy="177.779" r="3.2"/>
    <circle cx="23.917"  cy="159.799" r="3.2"/>
    <circle cx="17.998"  cy="140.289" r="3.2"/>
    <circle cx="16.000"  cy="120.000" r="3.2"/>
    <circle cx="17.998"  cy="99.711"  r="3.2"/>
    <circle cx="23.917"  cy="80.201"  r="3.2"/>
    <circle cx="33.527"  cy="62.221"  r="3.2"/>
    <circle cx="46.461"  cy="46.461"  r="3.2"/>
    <circle cx="62.221"  cy="33.527"  r="3.2"/>
    <circle cx="80.201"  cy="23.917"  r="3.2"/>
    <circle cx="99.711"  cy="17.998"  r="3.2"/>
  </g>

  <circle cx="120" cy="120" r="5" stroke="none"/>
</svg>
